<svg width="50" height="48" viewBox="0 0 50 48" fill="none" xmlns="http://www.w3.org/2000/svg">
<path d="M43.5297 42.9375L42.1453 42.468C42.1493 42.3724 42.1415 42.2768 42.1219 42.183C42.1219 42.183 40.2453 41.1382 38.0476 41.5777C35.85 42.0172 33.6992 43.248 32.2797 42.8085C31.968 42.7117 31.5758 42.4807 31.1094 42.1867C32.9617 41.6272 35.0695 41.3775 35.6211 40.4355C36.4453 39.0292 38.2992 38.9295 38.2992 38.9295C38.2992 38.79 38.2773 38.673 38.2437 38.5687L39.7172 38.3115C39.7953 38.298 39.8375 38.1562 39.8086 37.9965C39.7812 37.8367 39.6953 37.7197 39.6164 37.734L37.8305 38.0527C37.5578 37.89 37.2695 37.872 37.2695 37.872C34.9703 37.7302 35.5297 40.26 32.5086 40.26C31.318 40.26 30.5805 40.782 29.7844 41.349C28.5914 40.6192 27.0789 39.8272 25.2281 39.459C29.0828 38.346 33.9844 37.524 37.6031 35.4757C46.4031 30.4965 51.4828 22.9687 46.4422 14.4157C41.4086 5.86725 27.0516 -6.06375 21.3945 7.953C19.0133 13.8532 16.8969 17.6002 15.2945 20.2485C16.3625 18.1702 17.7883 14.9152 18.5328 11.1667C10.05 15.2722 10.2766 23.2425 10.8109 26.637C10.6451 26.6926 10.4853 26.7634 10.3336 26.8485L3.25234 30.8535C0.906245 32.181 1.01718 36.6817 3.49921 40.896C5.4664 44.2335 8.32578 46.389 10.5984 46.4872L10.5883 46.5C10.6336 46.5 10.6766 46.4955 10.7219 46.4947C10.7867 46.4955 10.8492 46.491 10.9125 46.488C14.0875 46.365 16.3297 44.502 18.25 44.2822C20.7281 43.9995 26.6852 45.363 28.7711 43.362C28.8917 43.2473 29.0218 43.1422 29.1602 43.0477C30.4562 43.965 31.7609 44.5882 33.5836 43.998C36.3531 43.1002 38.9164 42.4192 41.8461 43.2877C41.8461 43.2877 41.9242 43.1895 42 43.0335L43.3156 43.4857C43.3906 43.512 43.4984 43.4092 43.5586 43.2585C43.6164 43.1062 43.6039 42.9637 43.5297 42.9375ZM30.257 4.4625C32.5844 3.1455 40.1234 8.49675 43.5227 14.268C46.9242 20.0407 41.5375 21.1642 38.1359 15.3915C34.7375 9.62175 26.4242 6.63375 30.257 4.4625ZM11.0187 44.0437C9.42265 44.949 6.66406 43.1955 4.85859 40.128C3.05078 37.0582 2.88203 33.84 4.47734 32.9347C6.075 32.034 8.83281 33.789 10.6414 36.855C12.4469 39.9202 12.6164 43.1407 11.0187 44.0437ZM14.9664 43.362C15.2383 41.1397 14.5703 38.3115 12.9547 35.565C11.3734 32.88 9.18046 30.8377 7.03828 29.9355L10.8922 27.756C11.1739 27.6019 11.4938 27.5239 11.818 27.5302C13.4695 27.5302 16.1656 29.2702 18.1234 32.5957C20.4602 36.5655 20.3391 40.3207 18.768 41.208L14.9664 43.362ZM23.8102 42.5392C22.0836 42.2062 20.3766 42.2227 18.8195 42.4065L21.4523 40.9162C21.9223 40.6563 22.4104 40.428 22.9133 40.233C24.1398 40.347 25.8359 40.6627 27.0758 41.511C27.4547 41.7712 27.8156 42.0435 28.168 42.3112C27.1805 42.7305 25.8703 42.9375 23.8102 42.5392Z" fill="white"/>
</svg>
