<svg width="49" height="48" viewBox="0 0 49 48" fill="none" xmlns="http://www.w3.org/2000/svg">
<path d="M44.149 5.6295C38.9052 0.4935 29.3135 1.55925 22.7283 8.01225C18.8688 11.7922 16.9127 16.578 16.9953 20.931C16.6845 25.593 15.8316 30.0923 13.5799 32.7008L12.8012 31.9373L11.6 33.1133L11.933 33.4395L3.85645 41.3512L3.52341 41.025L2.32367 42.2002L6.7107 46.5L7.91197 45.3247L7.57892 44.9993L15.6563 37.0875L15.9893 37.413L17.1883 36.2378L16.5168 35.5763C19.1781 33.372 23.765 32.5372 28.5195 32.2305C32.9648 32.3152 37.8548 30.3997 41.7174 26.616C48.3071 20.163 49.3943 10.767 44.149 5.6295ZM45.054 14.0077L43.953 12.9307L44.8074 12.0953C44.9452 12.7173 45.0274 13.3547 45.054 14.0077ZM44.4514 10.8802L43.156 12.15L40.7259 9.76875L42.6537 7.8795C43.4434 8.75791 44.0536 9.77658 44.4514 10.8802ZM22.0883 21.6952L25.137 18.7073L27.5694 21.0892L24.5191 24.0758L22.0883 21.6952ZM23.7229 24.8602L21.7912 26.7502C21.0013 25.8712 20.3911 24.8517 19.9935 23.7472L21.2897 22.479L23.7229 24.8602ZM33.6469 10.3733L36.6941 7.38675L39.125 9.7695L36.0755 12.7568L33.6469 10.3733ZM38.5063 16.7017L35.4553 19.6957L33.0214 17.3153L36.0755 14.322L38.5063 16.7017ZM35.2769 13.539L32.2229 16.5308L29.792 14.1495L32.8461 11.157L35.2769 13.539ZM31.4235 17.3153L28.3687 20.307L25.9363 17.9242L28.9919 14.9325L31.4235 17.3153ZM28.9919 13.3665L26.5672 10.9905L29.6213 7.998L32.0445 10.3733L28.9919 13.3665ZM28.1934 14.1503L25.137 17.1412L22.713 14.7653L25.7656 11.772L28.1934 14.1503ZM28.3687 21.8738L30.7988 24.2535L27.7501 27.2415L25.3207 24.8587L28.3687 21.8738ZM29.1703 21.0892L32.2229 18.0975L34.6537 20.4788L31.5973 23.4713L29.1703 21.0892ZM35.4553 21.261L37.8762 23.6378L34.8214 26.6295L32.3951 24.2535L35.4553 21.261ZM36.2523 20.478L39.3064 17.4862L41.7327 19.8615L38.6786 22.854L36.2523 20.478ZM36.8756 13.5397L39.9258 10.5518L42.3559 12.9315L39.3095 15.9195L36.8756 13.5397ZM41.8552 7.0965L39.9258 8.9865L37.4927 6.60375L38.7873 5.3355C39.9164 5.72294 40.9582 6.32096 41.8552 7.0965ZM37.5478 4.9845L36.6949 5.82L35.5962 4.74375C36.2633 4.77025 36.9138 4.8505 37.5478 4.9845ZM34.0328 4.77825L35.8948 6.603L32.8468 9.59025L30.4198 7.215L32.7328 4.94925C33.1687 4.87075 33.602 4.81375 34.0328 4.77825ZM30.5438 5.5275L29.622 6.432L29.2293 6.04725C29.6594 5.85515 30.0981 5.68173 30.5438 5.5275ZM28.1658 6.57075L28.8212 7.2135L25.7656 10.2067L24.6317 9.093C25.6966 8.10985 26.8841 7.2624 28.1658 6.57075ZM23.8316 9.8775L24.9678 10.9905L21.913 13.9823L21.2568 13.3387C21.9629 12.0834 22.828 10.9205 23.8316 9.8775ZM20.7216 14.3812L21.1136 14.766L20.1903 15.6705C20.3444 15.2375 20.5216 14.8077 20.7216 14.3812ZM19.6 17.8125L21.913 15.5475L24.3385 17.9235L21.2897 20.9093L19.4247 19.083C19.4614 18.6625 19.5199 18.239 19.6 17.8125ZM20.4889 21.6945L19.636 22.53C19.4971 21.901 19.4151 21.2613 19.391 20.6182L20.4889 21.6945ZM17.2166 32.0153C16.379 31.1947 17.4693 28.0148 18.2242 26.124C18.7479 27.1733 19.4254 28.1483 20.2929 28.998C21.1603 29.8478 22.1572 30.513 23.2306 31.0267C21.3005 31.7655 18.0527 32.8342 17.2166 32.0153ZM22.5905 27.534L24.5199 25.6433L26.9508 28.0252L25.653 29.2935C24.5268 28.9042 23.4871 28.3069 22.5905 27.534ZM26.8956 29.643L27.7493 28.8068L28.8488 29.8845C28.1917 29.8604 27.5382 29.7796 26.8956 29.643ZM30.4129 29.85L28.5479 28.023L31.5966 25.0365L34.0236 27.4118L31.7099 29.6798C31.2806 29.7566 30.8478 29.8134 30.4129 29.85ZM33.898 29.1015L34.8206 28.1978L35.2142 28.5818C34.7783 28.7763 34.3396 28.9495 33.898 29.1015ZM36.2807 28.0553L35.6245 27.4118L38.6786 24.4207L39.814 25.533C38.7493 26.5161 37.5621 27.3635 36.2807 28.0553ZM40.6133 24.75L39.4772 23.6378L42.5312 20.6453L43.1889 21.288C42.4819 22.5432 41.6166 23.7063 40.6133 24.75ZM43.7233 20.2463L43.3305 19.8622L44.2531 18.9585C44.0969 19.3955 43.9201 19.8252 43.7233 20.2463ZM44.8442 16.8127L42.5312 19.0793L40.1073 16.7017L43.156 13.7153L45.0195 15.5422C44.9816 15.9682 44.9231 16.3922 44.8442 16.8127ZM9.95312 18C12.2025 18 14.318 17.142 15.9089 15.5842C17.4999 14.0265 18.375 11.9535 18.375 9.75C18.375 7.5465 17.4976 5.47425 15.9066 3.9165C14.3164 2.35875 12.2018 1.5 9.95236 1.5C7.70295 1.5 5.58906 2.358 3.99886 3.9165C2.40789 5.47425 1.53125 7.5465 1.53125 9.75C1.53125 11.9535 2.40713 14.0265 3.99809 15.5842C4.7784 16.3525 5.70649 16.9616 6.72866 17.3763C7.75082 17.7909 8.84678 18.0029 9.95312 18ZM14.9151 4.88925C16.1831 6.12725 16.916 7.79587 16.9617 9.549C15.1822 9.47448 13.4963 8.74802 12.2378 7.5135C10.9767 6.28088 10.235 4.62878 10.1598 2.88525C11.9489 2.9302 13.6516 3.64778 14.9151 4.88925ZM4.99111 4.8885C6.14549 3.7525 7.6712 3.05075 9.30081 2.90625C9.38066 4.8659 10.2112 6.72417 11.6269 8.11088C13.0427 9.4976 14.9397 10.311 16.9402 10.389C16.7927 11.9857 16.076 13.4806 14.9159 14.6115C13.7613 15.7477 12.2353 16.4494 10.6054 16.5938C10.5253 14.6345 9.6949 12.7767 8.27947 11.3903C6.86413 10.0037 4.96761 9.19021 2.96756 9.11175C3.11344 7.51452 3.83003 6.01895 4.99111 4.8885ZM7.66927 11.9865C8.92968 13.2195 9.67129 14.8714 9.74717 16.6147C7.95774 16.5704 6.25438 15.853 4.99034 14.6115C3.72293 13.3733 2.99065 11.7047 2.94536 9.95175C4.72467 10.0261 6.41061 10.7523 7.66927 11.9865Z" fill="white"/>
</svg>
