<svg width="28" height="28" viewBox="0 0 28 28" fill="none" xmlns="http://www.w3.org/2000/svg">
<path d="M3.112 24.336H24.888C26.9595 24.336 28 23.3055 28 21.2635V8.31C28 6.268 26.9595 5.237 24.888 5.237H3.112C1.0505 5.2365 0 6.2575 0 8.31V21.264C0 23.306 1.0505 24.336 3.112 24.336ZM3.142 22.741C2.151 22.741 1.596 22.206 1.596 21.175V19.738H4.381C5.8475 19.738 6.71 18.8755 6.71 17.4085V12.155C6.71 10.688 5.8475 9.826 4.381 9.826H1.596V8.3885C1.596 7.3675 2.151 6.8325 3.142 6.8325H13.172V10.1725C10.962 10.5295 9.297 12.4425 9.297 14.7815C9.297 17.1205 10.962 19.0335 13.172 19.4005V22.7405L3.142 22.741ZM18.6435 14.782C18.6235 12.453 16.9885 10.5695 14.7685 10.183V6.833H24.858C25.839 6.833 26.404 7.368 26.404 8.389V9.826H23.619C22.152 9.826 21.29 10.6885 21.29 12.1555V17.4085C21.29 18.8755 22.152 19.7375 23.619 19.7375H26.404V21.175C26.404 22.2055 25.839 22.741 24.858 22.741H14.768V19.4C16.998 19.023 18.673 17.12 18.6435 14.781M23.6485 18.141C23.163 18.141 22.8855 17.8635 22.8855 17.378V12.1845C22.8855 11.699 23.163 11.4215 23.6485 11.4215H26.404V18.1415L23.6485 18.141ZM4.3515 11.4215C4.8375 11.4215 5.115 11.699 5.115 12.1845V17.3785C5.115 17.8635 4.8375 18.1415 4.3515 18.1415H1.5965V11.4215H4.3515ZM10.7345 14.7715C10.7323 14.0531 10.9714 13.3548 11.4136 12.7886C11.8559 12.2225 12.4755 11.8213 13.173 11.6495V17.9135C11.7855 17.5565 10.7345 16.2785 10.7345 14.7715ZM17.207 14.7715C17.187 16.278 16.156 17.5565 14.7685 17.9135V11.6595C16.166 12.016 17.2165 13.2745 17.207 14.7715Z" fill="white"/>
</svg>
