<svg width="50" height="50" viewBox="0 0 50 50" fill="none" xmlns="http://www.w3.org/2000/svg">
<path d="M6.44554 32.8768C7.325 32.8768 7.82768 32.3741 7.82768 31.4946V21.0098C7.82768 20.1304 7.325 19.6277 6.44554 19.6277H0V32.8777L6.44554 32.8768ZM18.7795 26.2339C18.7795 29.1071 20.8259 31.5661 23.5009 32.2125V20.3098C22.1544 20.6075 20.951 21.3583 20.0916 22.4367C19.2322 23.5152 18.769 24.855 18.7795 26.2339ZM26.3911 32.2134C29.0839 31.567 31.0768 29.108 31.1125 26.2348C31.1304 23.3625 29.1027 20.9571 26.3911 20.3107V32.2134ZM43.5545 19.6286C42.675 19.6286 42.1723 20.1313 42.1723 21.0107V31.4955C42.1723 32.375 42.675 32.8777 43.5545 32.8777H50V19.6277L43.5545 19.6286ZM50 35.7679H43.5C40.8438 35.7679 39.2821 34.2054 39.2821 31.5482V20.9563C39.2821 18.2991 40.8438 16.7375 43.5009 16.7375H50V14.8875C50 11.1893 48.1152 9.32233 44.3625 9.32233H26.3911V17.5991C30.592 18.2813 33.6982 21.8536 33.7518 26.2527C33.8054 30.6866 30.6098 34.2598 26.3911 34.942V43.2009H44.3625C48.1152 43.2009 50 41.333 50 37.6348V35.7679ZM0 35.7679V37.6339C0 41.333 1.90268 43.2 5.6375 43.2H23.5V34.9411C19.2991 34.2777 16.1393 30.7045 16.1393 26.2527C16.1393 21.8357 19.2991 18.2089 23.5 17.5634V9.32233H5.6375C1.90179 9.32233 0 11.1714 0 14.8875V16.7375H6.49911C9.15625 16.7375 10.7179 18.2991 10.7179 20.9563V31.5482C10.7179 34.2054 9.15536 35.7679 6.49911 35.7679H0Z" fill="white"/>
</svg>
