<svg width="49" height="48" viewBox="0 0 49 48" fill="none" xmlns="http://www.w3.org/2000/svg">
<path d="M24.5 2.25C12.2377 2.25 2.29688 11.988 2.29688 24C2.29688 36.012 12.2377 45.75 24.5 45.75C36.7622 45.75 46.7031 36.012 46.7031 24C46.7031 11.988 36.7622 2.25 24.5 2.25ZM4.59681 23.6895C6.57491 22.9929 8.40971 21.9551 10.0144 20.625C11.8366 19.125 13.2913 17.325 14.3478 15.33C15.5728 15.945 16.7672 16.605 17.9462 17.31C13.2989 22.9016 10.3739 29.6744 9.51366 36.8355C6.26358 33.2045 4.51068 28.5179 4.59681 23.6895ZM22.3103 43.3845C18.0771 42.9302 14.1057 41.1531 10.9837 38.316C11.6114 30.9281 14.5146 23.901 19.3091 18.165C20.8403 19.14 22.3103 20.175 23.7344 21.285C23.4434 21.585 23.1678 21.885 22.8922 22.215C19.9062 25.8 18.5281 30.315 19.0028 34.935C19.3205 37.9886 20.4621 40.9059 22.3103 43.3845ZM38.2077 38.139C34.5121 41.586 29.6029 43.5059 24.5 43.5H24.4801C22.2935 41.0559 20.9407 38.0038 20.6106 34.77C20.3734 32.5009 20.6422 30.2083 21.3983 28.051C22.1544 25.8936 23.3799 23.9228 24.99 22.275C30.3548 26.7219 34.8358 32.099 38.2077 38.139ZM43.7555 19.0335C44.1796 20.619 44.4062 22.284 44.4062 24C44.4062 28.971 42.5075 33.507 39.3837 36.951C35.9787 30.9654 31.5026 25.6285 26.1691 21.195C28.6344 19.11 31.6969 17.82 35.0044 17.49C38.0119 17.1839 41.0463 17.7182 43.7555 19.0335ZM34.6369 7.215C38.4986 9.45941 41.4762 12.9125 43.0894 17.0175C40.4674 16.0085 37.6365 15.6304 34.8344 15.915C31.0982 16.29 27.6528 17.775 24.8966 20.175C23.4419 19.035 21.926 17.955 20.3641 16.95C24.2795 12.6567 29.1679 9.3225 34.6369 7.215ZM16.2726 6.24C18.8564 5.08995 21.662 4.49659 24.5 4.5C27.4584 4.5 30.2652 5.1315 32.7887 6.2655C27.506 8.50739 22.7936 11.8637 18.9875 16.095C17.7012 15.315 16.3844 14.58 15.0216 13.89C15.68 12.3 16.0934 10.605 16.2466 8.85C16.3323 7.9725 16.3354 7.1025 16.2726 6.24ZM9.31 11.3955C10.8288 9.6371 12.6537 8.15621 14.7 7.0215C14.7153 7.5855 14.7 8.15 14.6541 8.715C14.5162 10.275 14.1488 11.775 13.5822 13.2C12.1833 12.5429 10.758 11.941 9.31 11.3955ZM4.70247 21.9495C5.0552 18.6161 6.28566 15.4296 8.27334 12.702C9.84746 13.2735 11.3941 13.9152 12.9084 14.625C11.9438 16.44 10.6269 18.06 8.97312 19.425C7.65778 20.511 6.21688 21.3465 4.70247 21.9495Z" fill="white"/>
</svg>
