<svg width="24" height="24" viewBox="0 0 24 24" fill="none" xmlns="http://www.w3.org/2000/svg">
<path d="M19.524 13.962C20.0799 13.2686 20.4928 12.4718 20.7387 11.6178C20.9846 10.7637 21.0586 9.86936 20.9565 8.9865C20.38 9.24297 19.756 9.37534 19.125 9.375C18.1901 9.37519 17.2784 9.08422 16.5165 8.5425L15.3105 9.75L19.524 13.962ZM18.4635 15.024L13.7445 10.305L13.6935 10.254L8.976 5.535C8.4465 6.195 8.04 6.957 7.788 7.785C7.29641 7.67213 6.79778 7.59245 6.2955 7.5465C6.85568 5.52141 8.16742 3.78636 9.9631 2.69535C11.7588 1.60434 13.9031 1.23958 15.9585 1.6755C16.5605 1.8035 17.1345 1.993 17.6805 2.244C19.4827 3.07088 20.9283 4.51702 21.7545 6.3195C22.0045 6.8645 22.194 7.438 22.323 8.04C22.439 8.592 22.4975 9.1615 22.4985 9.7485C22.4991 11.553 21.9081 13.3079 20.816 14.7443C19.7239 16.1808 18.1909 17.2195 16.452 17.7015C16.4056 17.1992 16.3254 16.7006 16.212 16.209C17.0304 15.9597 17.794 15.557 18.462 15.0225M20.607 7.482C20.3554 6.77729 19.9884 6.11932 19.521 5.535L17.598 7.458C18.0532 7.72691 18.5714 7.87076 19.1 7.87498C19.6287 7.87919 20.1491 7.74362 20.6085 7.482M16.5405 6.396L18.462 4.476C17.8787 4.00834 17.2218 3.64084 16.518 3.3885C16.2675 3.8265 16.125 4.3335 16.125 4.8735C16.125 5.4285 16.275 5.9505 16.5405 6.396ZM15.0135 3.045C14.1304 2.94269 13.2358 3.01663 12.3815 3.26252C11.5271 3.50842 10.7301 3.92138 10.0365 4.4775L14.25 8.688L15.456 7.482C14.9151 6.72032 14.6247 5.80919 14.625 4.875C14.625 4.2225 14.7645 3.603 15.015 3.0435M3.75 10.5C3.55109 10.5 3.36032 10.579 3.21967 10.7197C3.07902 10.8603 3 11.0511 3 11.25V12.75C3 14.938 3.86919 17.0365 5.41637 18.5836C6.96354 20.1308 9.06196 21 11.25 21H12.75C12.9489 21 13.1397 20.921 13.2803 20.7803C13.421 20.6397 13.5 20.4489 13.5 20.25V18.75C13.5 17.6666 13.2866 16.5938 12.872 15.5929C12.4574 14.5919 11.8497 13.6825 11.0836 12.9164C10.3175 12.1503 9.40807 11.5426 8.40714 11.128C7.4062 10.7134 6.33341 10.5 5.25 10.5H3.75ZM1.5 11.25C1.5 10.6533 1.73705 10.081 2.15901 9.65901C2.58097 9.23705 3.15326 9 3.75 9H5.25C7.83586 9 10.3158 10.0272 12.1443 11.8557C13.9728 13.6842 15 16.1641 15 18.75V20.25C15 20.8467 14.7629 21.419 14.341 21.841C13.919 22.2629 13.3467 22.5 12.75 22.5H11.25C8.66414 22.5 6.18419 21.4728 4.35571 19.6443C2.52723 17.8158 1.5 15.3359 1.5 12.75V11.25ZM6.594 14.094C6.66367 14.0242 6.74643 13.9687 6.83755 13.9309C6.92867 13.8931 7.02635 13.8737 7.125 13.8737C7.22365 13.8737 7.32133 13.8931 7.41245 13.9309C7.50357 13.9687 7.58633 14.0242 7.656 14.094L9.906 16.344C9.97573 16.4137 10.031 16.4965 10.0688 16.5876C10.1065 16.6787 10.1259 16.7764 10.1259 16.875C10.1259 16.9736 10.1065 17.0713 10.0688 17.1624C10.031 17.2535 9.97573 17.3363 9.906 17.406C9.83627 17.4757 9.75348 17.531 9.66238 17.5688C9.57127 17.6065 9.47362 17.6259 9.375 17.6259C9.27638 17.6259 9.17873 17.6065 9.08762 17.5688C8.99652 17.531 8.91373 17.4757 8.844 17.406L6.594 15.156C6.52416 15.0863 6.46874 15.0036 6.43093 14.9124C6.39312 14.8213 6.37366 14.7236 6.37366 14.625C6.37366 14.5263 6.39312 14.4287 6.43093 14.3375C6.46874 14.2464 6.52416 14.1637 6.594 14.094Z" fill="white"/>
</svg>
