<svg width="50" height="50" viewBox="0 0 50 50" fill="none" xmlns="http://www.w3.org/2000/svg">
<path d="M0 42.7083H50M29.1667 19.7917H7.29167C6.48281 19.7916 5.69142 20.027 5.01405 20.469C4.33669 20.9111 3.80265 21.5408 3.47708 22.2812C3.03125 23.2917 3.56458 24.3979 4.34583 25.1771L13.7833 34.6167C14.963 35.7947 16.562 36.4564 18.2292 36.4564C19.8963 36.4564 21.4953 35.7947 22.675 34.6167L31.25 26.0417H35.4167C35.4167 26.0417 41.7417 26.4042 48.9583 22.2375M20.8333 29.1667L11.4583 19.7917M5.61458 15.625C5.61458 15.625 1.84375 14.4646 1.16667 11.925C0.915853 10.9844 1.04712 9.98285 1.53184 9.13869C2.01656 8.29452 2.81541 7.67626 3.75417 7.41875C4.21874 7.29444 4.70333 7.26327 5.18 7.32704C5.65668 7.39081 6.11603 7.54826 6.53159 7.79031C6.94716 8.03237 7.31073 8.35426 7.60136 8.73743C7.89199 9.1206 8.10394 9.55748 8.225 10.0229C8.9 12.5625 6.22083 15.4604 6.22083 15.4604L5.61458 15.625Z" stroke="white"/>
</svg>
