<svg width="49" height="48" viewBox="0 0 49 48" fill="none" xmlns="http://www.w3.org/2000/svg">
<path d="M21.4497 30.018L34.9941 20.996C35.3793 20.7147 35.7175 20.3893 36.0088 20.02C36.999 18.76 36.9806 17.008 36.3518 15.544C35.637 13.8945 34.4409 12.4885 32.9137 11.5023C31.3864 10.516 29.5958 9.9934 27.7666 10C25.8556 10 24.0793 10.558 22.6032 11.514L8.14819 21.514" stroke="white" stroke-width="1.5" stroke-linecap="round" stroke-linejoin="round"/>
<path d="M12.2398 27.012C12.2398 28.404 12.9932 31.172 16.4048 31.932C18.4608 32.388 24.4449 30.46 21.5171 24.876C18.5894 19.292 11.5395 19.264 8.67096 21.136C6.91717 22.176 3.51371 25.432 4.15888 29.758C4.38959 32.378 6.49659 37.698 13.0912 38.002H33.2873C35.1698 37.856 35.5577 37.588 36.9909 36.512C38.9203 34.816 42.14 31.696 44.0122 29.642C44.4165 29.2 44.8513 28.742 44.9085 28.15C45.2045 24.998 40.3209 26.364 36.7827 25.988" stroke="white" stroke-width="1.5" stroke-linecap="round" stroke-linejoin="round"/>
</svg>
