<svg width="56" height="55" viewBox="0 0 56 55" fill="none" xmlns="http://www.w3.org/2000/svg">
<path d="M28 5.15625C15.456 5.15625 5.25 15.18 5.25 27.5C5.25 39.82 15.456 49.8438 28 49.8438C40.544 49.8438 50.75 39.82 50.75 27.5C50.75 15.18 40.544 5.15625 28 5.15625ZM28 8.59375C29.0535 8.59375 30.0562 8.70203 31.0625 8.86188L28 11.0103L24.9375 8.86188C25.9385 8.70719 26.9535 8.59375 28 8.59375ZM20.671 10.0444L26.9605 14.5561L28 15.3055L29.0395 14.5544L35.3273 10.0409C38.1273 11.1805 40.5947 12.9284 42.546 15.1422L40.1398 22.5019L39.7583 23.6827L40.796 24.3839L47.1398 28.9489C46.9195 31.891 46.0014 34.7416 44.4588 37.2728H35.2152L34.8338 38.4553L32.375 45.925C29.4392 46.5851 26.3873 46.5657 23.4605 45.8683L21.0543 38.512L20.6745 37.3295H11.5395C10.0082 34.8545 9.0965 32.0014 8.862 28.9489L15.1497 24.4372L16.1893 23.7359L15.8043 22.5552L13.3455 15.2505C15.3326 12.9674 17.845 11.1822 20.6745 10.0427L20.671 10.0444ZM28 17.3491L26.9605 18.1002L18.977 23.7961L17.9918 24.5472L18.3768 25.7331L21.4393 34.9147L21.8242 36.0972H34.181L34.566 34.9147L37.6285 25.7314L38.0135 24.5455L37.0265 23.7961L29.043 18.1019L28.0035 17.3525L28 17.3491ZM45.0625 18.7447C46.0246 20.5792 46.6715 22.5572 46.977 24.5988L43.8585 22.3987L45.0625 18.7447ZM10.885 18.853L12.0855 22.3936L9.023 24.5988C9.34325 22.5534 9.95575 20.6198 10.8832 18.8513L10.885 18.853ZM28 21.6442L33.9062 25.8328L31.6662 32.6562H24.3337L22.0938 25.8328L28 21.6477V21.6442ZM37.7895 40.712H41.727C40.2393 42.2244 38.5007 43.4774 36.5855 44.4177L37.7895 40.712ZM14.273 40.7636H18.102L19.3043 44.3644C17.4401 43.4405 15.7414 42.225 14.2747 40.7653L14.273 40.7636Z" fill="white"/>
</svg>
