<svg width="50" height="48" viewBox="0 0 50 48" fill="none" xmlns="http://www.w3.org/2000/svg">
<path d="M40.6292 41C40.0528 41 39.5604 40.806 39.1521 40.418C38.7437 40.03 38.5403 39.5587 38.5417 39.004C38.5431 38.4493 38.7451 37.9767 39.1479 37.586C39.5507 37.1953 40.0417 37 40.6208 37C41.2 37 41.6924 37.194 42.0979 37.582C42.5035 37.97 42.7069 38.4413 42.7083 38.996C42.7097 39.5507 42.5076 40.0233 42.1021 40.414C41.6965 40.8047 41.2056 41 40.6292 41ZM20.8375 43C17.6569 43 14.9514 42.7107 12.7208 42.132C10.4903 41.5547 9.375 40.844 9.375 40C9.375 39.3533 10.1347 38.7767 11.6542 38.27C13.1736 37.7633 14.8181 37.43 16.5875 37.27V38.692C16.5875 39.1053 16.7403 39.4653 17.0458 39.772C17.3542 40.0787 17.7354 40.232 18.1896 40.232C18.6201 40.232 18.9951 40.0787 19.3146 39.772C19.6326 39.4653 19.7917 39.1053 19.7917 38.692V8.19999C19.7917 7.57333 20.0549 7.10399 20.5812 6.79199C21.1076 6.47999 21.6514 6.46466 22.2125 6.74599L30.0708 10.398C30.7056 10.6873 31.0292 11.1713 31.0417 11.85C31.0542 12.5287 30.7458 13.0133 30.1167 13.304L21.875 17.384V37.024C24.8611 37.1893 27.3437 37.54 29.3229 38.076C31.3021 38.612 32.2917 39.2533 32.2917 40C32.2917 40.844 31.1778 41.5547 28.95 42.132C26.7236 42.7107 24.0194 43 20.8375 43Z" fill="white"/>
</svg>
