<svg width="32" height="32" viewBox="0 0 32 32" fill="none" xmlns="http://www.w3.org/2000/svg">
<path d="M16 26.6667C18.8289 26.6667 21.542 25.5429 23.5424 23.5425C25.5428 21.5421 26.6666 18.829 26.6666 16C26.6666 13.171 25.5428 10.4579 23.5424 8.45752C21.542 6.45713 18.8289 5.33332 16 5.33332C13.171 5.33332 10.4579 6.45713 8.45749 8.45752C6.4571 10.4579 5.33329 13.171 5.33329 16C5.33329 18.829 6.4571 21.5421 8.45749 23.5425C10.4579 25.5429 13.171 26.6667 16 26.6667ZM16 2.66666C17.7509 2.66666 19.4847 3.01153 21.1024 3.6816C22.7201 4.35166 24.1899 5.33379 25.4281 6.5719C26.6662 7.81001 27.6483 9.27987 28.3184 10.8975C28.9884 12.5152 29.3333 14.249 29.3333 16C29.3333 19.5362 27.9285 22.9276 25.4281 25.4281C22.9276 27.9286 19.5362 29.3333 16 29.3333C8.62663 29.3333 2.66663 23.3333 2.66663 16C2.66663 12.4638 4.07138 9.07238 6.57187 6.5719C9.07235 4.07141 12.4637 2.66666 16 2.66666ZM16.6666 9.33332V16.3333L22.6666 19.8933L21.6666 21.5333L14.6666 17.3333V9.33332H16.6666Z" fill="white"/>
</svg>
