<svg width="49" height="48" viewBox="0 0 49 48" fill="none" xmlns="http://www.w3.org/2000/svg">
<path d="M37.7708 32C40.6292 32 42.875 34.2 42.875 37C42.875 39.8 40.6292 42 37.7708 42C34.9125 42 32.6667 39.8 32.6667 37C32.6667 34.2 34.9125 32 37.7708 32ZM21.4375 2C6.125 2 6.125 7.4 6.125 19.6C6.125 26.4 13.0667 33.8 18.375 36.2V46H24.5V36.2C29.8083 33.8 36.75 26.4 36.75 19.6C36.75 7.2 36.75 2 21.4375 2ZM31.4417 8.4C32.0542 9.2 32.2583 10.4 32.4625 12H30.625V7.6C31.0333 7.8 31.2375 8.2 31.4417 8.4ZM32.6667 19.6V20H30.625V14H32.6667V19.6ZM28.5833 28H22.4583V22H28.5833V28ZM14.2917 28V22H20.4167V28H14.2917ZM10.2083 19.6V14H12.25V20H10.2083V19.6ZM14.2917 14H20.4167V20H14.2917V14ZM22.4583 6C25.3167 6 27.3583 6.4 28.5833 6.6V12H22.4583V6ZM20.4167 12H14.2917V6.8C15.5167 6.4 17.5583 6 20.4167 6V12ZM22.4583 20V14H28.5833V20H22.4583ZM12.25 7.6V12H10.4125C10.6167 10.4 10.8208 9.2 11.4333 8.4L12.25 7.6ZM10.6167 22H12.25V25.4C11.6375 24.2 11.025 23.2 10.6167 22ZM16.3333 30H20.4167V32.6L20.0083 32.4C18.7833 32 17.5583 31 16.3333 30ZM22.8667 32.6H22.4583V30H26.5417C25.3167 31 24.0917 32 22.8667 32.6ZM30.625 25.4V22H32.2583C31.85 23 31.2375 24.2 30.625 25.4Z" fill="white"/>
</svg>
