<svg width="50" height="48" viewBox="0 0 50 48" fill="none" xmlns="http://www.w3.org/2000/svg">
<path fill-rule="evenodd" clip-rule="evenodd" d="M2.60426 24C2.60426 12.126 12.6313 2.5 25.0001 2.5C37.3688 2.5 47.3959 12.126 47.3959 24C47.3959 35.874 37.3688 45.5 25.0001 45.5C19.6876 45.5 14.8043 43.724 10.9647 40.756L10.9605 40.752C8.34954 38.7389 6.24307 36.1884 4.79672 33.2888C3.35037 30.3893 2.6011 27.2148 2.60426 24ZM16.7543 40.726C19.2543 41.864 22.0501 42.5 25.0001 42.5C28.2764 42.5025 31.4991 41.7022 34.3632 40.1748C37.2272 38.6475 39.6378 36.4436 41.3668 33.772C40.362 32.3387 39.1562 31.0452 37.7834 29.928C32.3543 35.532 24.7209 39.544 16.7543 40.726ZM35.2188 28.166C29.3751 34.048 20.8793 37.916 12.5001 38.08C11.1984 37.0142 10.0495 35.7875 9.08342 34.432C15.4626 33.952 21.3751 30.918 25.3376 26.028L25.7584 25.508C29.0966 25.6016 32.3536 26.5176 35.2168 28.168M25.8938 22.512C32.5834 22.712 38.8188 25.746 42.9418 30.762C43.8696 28.4948 44.3193 26.0733 44.2647 23.638L43.148 22.548L43.1438 22.544C37.9619 17.573 30.9919 14.6984 23.6688 14.512C23.7036 17.3151 24.4685 20.0653 25.8938 22.512ZM23.9147 11.518C31.1062 11.7358 38.0075 14.2921 43.4876 18.768C42.3577 15.1007 40.0728 11.8592 36.9469 9.48854C33.8209 7.11788 30.0071 5.73437 26.0293 5.528L25.0126 7.87C24.5035 9.04218 24.1344 10.266 23.9126 11.518M22.5897 5.644C20.5995 5.88215 18.6607 6.41868 16.8438 7.234C13.9381 14.258 13.9657 22.0871 16.9209 29.092C19.2236 27.8542 21.2452 26.1869 22.8668 24.188L23.1105 23.884C21.6096 21.2785 20.7414 18.3811 20.5707 15.4083C20.4001 12.4354 20.9314 9.46401 22.1251 6.716L22.5897 5.644ZM14.0834 30.342C11.2938 23.8112 10.8065 16.5835 12.6959 9.762C10.514 11.4961 8.75808 13.6716 7.55375 16.133C6.34942 18.5943 5.72641 21.2807 5.72926 24C5.72926 26.67 6.31884 29.208 7.37926 31.5C9.66678 31.4895 11.9351 31.0984 14.0834 30.344" fill="white"/>
</svg>
