<svg width="42" height="42" viewBox="0 0 42 42" fill="none" xmlns="http://www.w3.org/2000/svg">
<path fill-rule="evenodd" clip-rule="evenodd" d="M21 2.30734e-10C23.7577 -1.29268e-05 26.4885 0.543157 29.0363 1.5985C31.5842 2.65384 33.8992 4.20068 35.8492 6.15071C37.7993 8.10074 39.3461 10.4158 40.4015 12.9636C41.4568 15.5114 42 18.2422 42 21C42 32.5979 32.5979 42 21 42C9.40205 42 0 32.5979 0 21C0 9.40205 9.40205 2.30734e-10 21 2.30734e-10ZM23.1 23.1H18.9C13.701 23.1 9.23756 26.2487 7.31242 30.7435C10.3585 35.0148 15.354 37.8 21 37.8C26.6459 37.8 31.6414 35.0148 34.6876 30.7432C32.7624 26.2487 28.299 23.1 23.1 23.1ZM21 6.29999C17.5206 6.29999 14.7 9.12062 14.7 12.6C14.7 16.0794 17.5206 18.9 21 18.9C24.4793 18.9 27.2999 16.0794 27.2999 12.6C27.2999 9.12062 24.4794 6.29999 21 6.29999Z" fill="#468F73"/>
</svg>
